<svg width="32" height="33" viewBox="0 0 32 33" fill="none" xmlns="http://www.w3.org/2000/svg">
<path d="M9.72152 28.3931L2.66663 29.9608L4.23437 22.9059C3.23388 21.0349 2.66663 18.8975 2.66663 16.6275C2.66663 9.26366 8.63616 3.29413 16 3.29413C23.3637 3.29413 29.3333 9.26366 29.3333 16.6275C29.3333 23.9912 23.3637 29.9608 16 29.9608C13.73 29.9608 11.5925 29.3936 9.72152 28.3931ZM10.1076 25.5755L10.979 26.0415C12.5099 26.8601 14.2206 27.2941 16 27.2941C21.891 27.2941 26.6666 22.5185 26.6666 16.6275C26.6666 10.7364 21.891 5.96079 16 5.96079C10.1089 5.96079 5.33329 10.7364 5.33329 16.6275C5.33329 18.4068 5.76728 20.1175 6.58595 21.6484L7.05191 22.5197L6.17884 26.4485L10.1076 25.5755Z" fill="white"/>
</svg>
