<svg width="144" height="144" viewBox="0 0 144 144" fill="none" xmlns="http://www.w3.org/2000/svg">
<path d="M72 12C38.9169 12 12 38.9169 12 72C12 105.083 38.9169 132 72 132C105.083 132 132 105.083 132 72C132 38.9169 105.083 12 72 12ZM72 21C100.219 21 123 43.7811 123 72C123 100.219 100.219 123 72 123C43.7811 123 21 100.219 21 72C21 43.7811 43.7811 21 72 21ZM57 48C53.685 48 51 50.685 51 54V90C51 93.315 53.685 96 57 96C60.315 96 63 93.315 63 90V54C63 50.685 60.315 48 57 48ZM87 48C83.685 48 81 50.685 81 54V90C81 93.315 83.685 96 87 96C90.315 96 93 93.315 93 90V54C93 50.685 90.315 48 87 48Z" fill="white"/>
</svg>
