<svg width="27" height="26" viewBox="0 0 27 26" fill="none" xmlns="http://www.w3.org/2000/svg">
<path d="M4.15152 15.8729C3.28348 17.9828 3.28338 20.3659 4.15152 22.4759C6.26153 23.3441 8.64467 23.344 10.7546 22.476L8.62449 20.3458C7.8562 20.4989 7.05952 20.5011 6.28095 20.3465C6.12633 19.5679 6.12859 18.7713 6.28161 18.003L4.15152 15.8729ZM6.69437 8.61938L2.67027 8.87224L0.853386 10.6891L15.9383 25.7741L17.7552 23.9572L18.0081 19.9331L23.4808 14.4603C26.7649 11.1763 27.1975 6.02128 24.9373 1.69019C20.6062 -0.570069 15.4512 -0.137405 12.1671 3.14663L6.69437 8.61938ZM5.31363 11.3781L7.86741 11.2176L14.0527 5.03225C16.238 2.84697 19.7108 2.33613 22.9349 3.69258C24.2913 6.91669 23.7805 10.3894 21.5952 12.5747L15.4099 18.76L15.2494 21.3139L5.31363 11.3781ZM15.9383 10.6891C16.9798 11.7306 18.6682 11.7305 19.7096 10.6891C20.751 9.64771 20.751 7.9593 19.7096 6.91787C18.6682 5.87644 16.9797 5.87647 15.9384 6.91787C14.897 7.95922 14.8969 9.6477 15.9383 10.6891Z" fill="white"/>
</svg>
