<svg width="32" height="33" viewBox="0 0 32 33" fill="none" xmlns="http://www.w3.org/2000/svg">
<path d="M16 3.29413C23.3637 3.29413 29.3333 9.26366 29.3333 16.6275C29.3333 23.9912 23.3637 29.9608 16 29.9608C8.63616 29.9608 2.66663 23.9912 2.66663 16.6275C2.66663 9.26366 8.63616 3.29413 16 3.29413ZM16.2129 21.9608C13.499 21.9608 11.0557 23.1191 9.35031 24.9683C11.1738 26.424 13.4853 27.2941 16 27.2941C18.626 27.2941 21.0302 26.3452 22.8888 24.7716C21.1941 23.0373 18.8292 21.9608 16.2129 21.9608ZM16 5.96079C10.1089 5.96079 5.33329 10.7364 5.33329 16.6275C5.33329 19.0416 6.13529 21.2684 7.48739 23.056C9.67515 20.7396 12.7752 19.2941 16.2129 19.2941C19.5254 19.2941 22.5244 20.6363 24.6957 22.8064C25.9368 21.0631 26.6666 18.9305 26.6666 16.6275C26.6666 10.7364 21.891 5.96079 16 5.96079ZM16 7.29413C18.9454 7.29413 21.3333 9.68194 21.3333 12.6275C21.3333 15.5729 18.9454 17.9608 16 17.9608C13.0544 17.9608 10.6666 15.5729 10.6666 12.6275C10.6666 9.68194 13.0544 7.29413 16 7.29413ZM16 9.96079C14.5272 9.96079 13.3333 11.1547 13.3333 12.6275C13.3333 14.1003 14.5272 15.2941 16 15.2941C17.4728 15.2941 18.6666 14.1003 18.6666 12.6275C18.6666 11.1547 17.4728 9.96079 16 9.96079Z" fill="white"/>
</svg>
