<svg width="32" height="33" viewBox="0 0 32 33" fill="none" xmlns="http://www.w3.org/2000/svg">
<path d="M24.0413 22.7832L29.7516 28.4935L27.866 30.3791L22.1557 24.6688C20.1025 26.3115 17.4986 27.2941 14.6666 27.2941C8.04263 27.2941 2.66663 21.9181 2.66663 15.2941C2.66663 8.67013 8.04263 3.29413 14.6666 3.29413C21.2906 3.29413 26.6666 8.67013 26.6666 15.2941C26.6666 18.1261 25.684 20.73 24.0413 22.7832ZM21.3662 21.7939C22.9966 20.1136 24 17.8216 24 15.2941C24 10.1375 19.8233 5.96079 14.6666 5.96079C9.50996 5.96079 5.33329 10.1375 5.33329 15.2941C5.33329 20.4508 9.50996 24.6275 14.6666 24.6275C17.1941 24.6275 19.4861 23.6241 21.1664 21.9937L21.3662 21.7939Z" fill="white"/>
</svg>
