<svg width="32" height="32" viewBox="0 0 32 32" fill="none" xmlns="http://www.w3.org/2000/svg">
<rect width="32" height="32" rx="16" fill="#262928"/>
<path d="M13.5003 8.5H18.5003L20.167 10.1667H23.5003C23.9606 10.1667 24.3337 10.5398 24.3337 11V22.6667C24.3337 23.1269 23.9606 23.5 23.5003 23.5H8.50033C8.04009 23.5 7.66699 23.1269 7.66699 22.6667V11C7.66699 10.5398 8.04009 10.1667 8.50033 10.1667H11.8337L13.5003 8.5ZM16.0003 21.8333C18.7617 21.8333 21.0003 19.5947 21.0003 16.8333C21.0003 14.0719 18.7617 11.8333 16.0003 11.8333C13.2389 11.8333 11.0003 14.0719 11.0003 16.8333C11.0003 19.5947 13.2389 21.8333 16.0003 21.8333ZM16.0003 20.1667C14.1594 20.1667 12.667 18.6742 12.667 16.8333C12.667 14.9924 14.1594 13.5 16.0003 13.5C17.8412 13.5 19.3337 14.9924 19.3337 16.8333C19.3337 18.6742 17.8412 20.1667 16.0003 20.1667Z" fill="white"/>
</svg>
